Coordinates
version=1
nRows=22
nColumns=24
inDegrees=yes

Units are S.I. units (second, meters, Newtons, ...)
Angles are in degrees.

endheader
time	pelvis_tilt	pelvis_list	pelvis_rotation	pelvis_tx	pelvis_ty	pelvis_tz	hip_flexion_r	hip_adduction_r	hip_rotation_r	knee_angle_r	ankle_angle_r	subtalar_angle_r	mtp_angle_r	hip_flexion_l	hip_adduction_l	hip_rotation_l	knee_angle_l	ankle_angle_l	subtalar_angle_l	mtp_angle_l	lumbar_extension	lumbar_bending	lumbar_rotation
      0.45400000	     -0.75770154	      4.55151892	      3.10200876	     -0.78516266	      0.98013741	      0.29213892	     28.05080127	     -3.33154197	     -3.21211057	    -13.76198178	      8.09745699	     -5.04077468	      0.46084488	    -15.04425311	      8.51731733	      3.33589510	     -6.03089642	     11.23029308	     -3.19920220	      0.22181885	     -1.92635828	     -2.79074075	     -1.63516190
      0.45816667	     -0.84222715	      4.57773867	      3.15398338	     -0.77909582	      0.97936320	      0.29230444	     27.99870298	     -3.29372211	     -3.27151935	    -13.72261338	      7.93245665	     -4.92729239	      0.64761512	    -14.88435308	      8.49773872	      3.14896333	     -6.90854601	     11.40438300	     -2.78458918	      0.22099109	     -1.76012658	     -2.82337684	     -1.65472810
      0.46233333	     -0.86565155	      4.57383384	      3.17008967	     -0.77296377	      0.97868889	      0.29251486	     27.88508618	     -3.20939149	     -3.31352724	    -13.76102224	      7.77351535	     -4.88458629	      0.93246991	    -14.74682094	      8.44366475	      2.81678742	     -7.86947932	     11.63499039	     -2.26374878	      0.25709943	     -1.66961299	     -2.81424946	     -1.72394190
      0.46650000	     -0.91730318	      4.57668468	      3.19888743	     -0.76681860	      0.97802704	      0.29272009	     27.79378708	     -3.13607402	     -3.32924842	    -13.84393762	      7.53523366	     -4.86703729	      1.23444449	    -14.56172583	      8.39558662	      2.56080094	     -8.85532458	     11.79142900	     -1.81472399	      0.33487863	     -1.54282185	     -2.81104066	     -1.76607316
      0.47066667	     -0.96781998	      4.56488043	      3.23515913	     -0.76061751	      0.97740354	      0.29292203	     27.67924178	     -3.04982516	     -3.32554556	    -13.94122871	      7.21596162	     -4.86595408	      1.48977602	    -14.35788827	      8.32862795	      2.33025537	     -9.88048999	     11.88456171	     -1.40992360	      0.43801680	     -1.39912263	     -2.80183369	     -1.79744001
      0.47483333	     -1.01475964	      4.54466183	      3.24133202	     -0.75441799	      0.97680198	      0.29316544	     27.59045787	     -2.94424283	     -3.29214092	    -14.14348621	      6.89746622	     -4.96565385	      1.81250529	    -14.11278610	      8.25492929	      2.03541333	    -10.98351704	     11.96361558	     -0.98289014	      0.61029023	     -1.28095467	     -2.76362839	     -1.83408700
      0.47900000	     -1.06330351	      4.51021822	      3.25312493	     -0.74818298	      0.97623499	      0.29341317	     27.48508689	     -2.82511414	     -3.23366807	    -14.35143398	      6.50581731	     -5.09424890	      2.14203905	    -13.84387469	      8.16278996	      1.77255225	    -12.12723613	     11.98317775	     -0.59800812	      0.83263722	     -1.14442911	     -2.71675796	     -1.85002583
      0.48316667	     -1.05512222	      4.43447028	      3.28322687	     -0.74189771	      0.97582096	      0.29366315	     27.28416027	     -2.66754282	     -3.17751267	    -14.53504266	      6.04075903	     -5.39630263	      2.92259501	    -13.60929925	      8.01127310	      1.52689135	    -13.30759095	     11.95994240	     -0.19744867	      1.47379766	     -1.07450382	     -2.61061029	     -1.82523756
      0.48733333	     -1.15210301	      4.43344027	      3.26353677	     -0.73567324	      0.97523034	      0.29393412	     27.27713971	     -2.58059130	     -3.06914752	    -14.89458198	      5.63907623	     -5.47939967	      3.22847741	    -13.23867420	      7.97203003	      1.33328125	    -14.52840512	     11.81492936	     -0.00520607	      1.78472133	     -0.88033862	     -2.60536671	     -1.84462122
      0.49150000	     -1.17927749	      4.38336948	      3.25972760	     -0.72937774	      0.97481921	      0.29417537	     27.15804383	     -2.45559618	     -3.00993493	    -15.20691249	      5.06478500	     -5.55190656	      3.33316840	    -12.93985638	      7.87758387	      1.22431259	    -15.73548846	     11.54070851	      0.06612943	      1.92233625	     -0.76944337	     -2.52664172	     -1.81410716
      0.49566667	     -1.21876123	      4.28070801	      3.24793086	     -0.72309184	      0.97441772	      0.29456421	     27.02176947	     -2.24111435	     -2.78114689	    -15.48905995	      4.67156644	     -6.12135375	      3.79959709	    -12.51413530	      7.68151549	      0.84810187	    -17.14532035	     11.32907882	      0.57328100	      2.62201108	     -0.62365515	     -2.40369443	     -1.78844256
      0.49983333	     -1.27368190	      4.23944139	      3.22506184	     -0.71684366	      0.97399964	      0.29482772	     26.97914485	     -2.12969172	     -2.70845498	    -15.92413429	      4.10714247	     -6.17424671	      3.89028904	    -12.09850106	      7.60474561	      0.76680126	    -18.49524249	     10.96295225	      0.54962678	      2.79595577	     -0.49112615	     -2.33644822	     -1.74621251
      0.50400000	     -1.33933454	      4.15625970	      3.19247692	     -0.71061252	      0.97361173	      0.29522124	     26.90930270	     -1.93895283	     -2.44603295	    -16.29511600	      3.65456021	     -6.81023922	      6.45240955	    -11.58420338	      7.44840669	      0.50656716	    -19.97392064	     10.48874750	      0.66138205	      8.38819878	     -0.31999534	     -2.24034640	     -1.65292927
      0.50816667	     -1.37410241	      4.05689412	      3.18071741	     -0.70436536	      0.97329027	      0.29555357	     26.83414260	     -1.76911257	     -2.35655683	    -16.73637291	      3.17543239	     -6.90108214	      6.45259140	    -11.07271838	      7.27270732	      0.32077770	    -21.50736793	     10.02029157	      0.88927992	      8.45003758	     -0.20219173	     -2.12034655	     -1.62610817
      0.51233333	     -1.42169934	      3.92718731	      3.14464462	     -0.69816837	      0.97296128	      0.29597742	     26.77569767	     -1.53719875	     -2.12853530	    -17.19321175	      2.84091258	     -7.46232421	      6.45101943	    -10.47840678	      7.04811004	      0.03606269	    -23.15015883	      9.52057514	      1.17544237	      8.70855628	     -0.06147789	     -1.95242020	     -1.55721458
      0.51650000	     -1.47093350	      3.80879393	      3.11644709	     -0.69198491	      0.97266323	      0.29634593	     26.73251530	     -1.34191541	     -1.97871116	    -17.67252217	      2.43046694	     -7.66738474	      6.44252981	     -9.85492900	      6.85058634	     -0.14252061	    -24.81643670	      8.88197074	      1.25952288	      8.88046813	      0.08266082	     -1.80918542	     -1.48023153
      0.52066667	     -1.47726157	      3.62629072	      3.07349431	     -0.68583578	      0.97244035	      0.29682646	     26.64346965	     -1.04988226	     -1.73896139	    -18.16997868	      2.18655514	     -8.34907975	      6.40605813	     -9.21702009	      6.55263145	     -0.41616986	    -26.56688738	      8.20274407	      1.51671913	      9.42995967	      0.15887840	     -1.58450351	     -1.37833109
      0.52483333	     -1.53043308	      3.47533246	      3.01888026	     -0.67973567	      0.97212764	      0.29725171	     26.65163976	     -0.81617356	     -1.59001098	    -18.74547680	      1.89378352	     -8.55866058	      6.37293539	     -8.48830708	      6.30563060	     -0.64592930	    -28.37157102	      7.44857079	      1.59857503	      9.78174015	      0.29358152	     -1.39591071	     -1.29164742
      0.52900000	     -1.55192451	      3.27505356	      2.97067575	     -0.67365352	      0.97189255	      0.29771591	     26.60627910	     -0.52196214	     -1.40605841	    -19.29276484	      1.71954008	     -8.95297658	      6.32076019	     -7.75356780	      5.98670768	     -0.87911531	    -30.22582054	      6.61170503	      1.73490790	     10.22695402	      0.39137270	     -1.15331984	     -1.18779331
      0.53316667	     -1.49214341	      3.02569924	      2.93594759	     -0.66756495	      0.97182176	      0.29819186	     26.44389211	     -0.17731025	     -1.24143321	    -19.79146417	      1.62727299	     -9.35004198	      5.44574453	     -7.07390950	      5.59211226	     -1.11292619	    -32.09021076	      5.56891178	      1.75237693	     16.32386029	      0.39184609	     -0.84929463	     -1.08136472
      0.53733333	     -1.48260706	      2.79692191	      2.87837467	     -0.66154921	      0.97164453	      0.29866785	     26.38632547	      0.13940841	     -1.10942958	    -20.38409362	      1.59627853	     -9.58063766	      5.43111168	     -6.29897019	      5.22585657	     -1.34653590	    -34.01818333	      4.56199607	      1.84530610	     16.36879942	      0.44633355	     -0.57519721	     -0.98298478
      0.54150000	     -1.46931213	      2.53612390	      2.83134384	     -0.65558089	      0.97149628	      0.29914677	     26.30863658	      0.49077203	     -0.96889243	    -20.94472077	      1.61397883	     -9.90330447	      5.39524268	     -5.49025388	      4.81718605	     -1.55491001	    -35.98437128	      3.51167534	      1.91260950	     16.46253561	      0.49293413	     -0.25898495	     -0.87215064
